<?xml version="1.0" encoding="UTF-8"?>
<svg xmlns="http://www.w3.org/2000/svg" xmlns:xlink="http://www.w3.org/1999/xlink" viewBox="0 0 50 50" width="50px" height="50px">
<g id="surface39837979">
<path style=" stroke:none;fill-rule:evenodd;fill:rgb(100%,100%,100%);fill-opacity:1;" d="M 25 2 C 12.304688 2 2.011719 12.296875 2.011719 25 C 2.011719 36.664062 10.6875 46.296875 21.933594 47.796875 L 21.933594 43.160156 C 21.933594 41.855469 21.109375 40.679688 19.871094 40.265625 C 13.382812 38.082031 8.742188 31.878906 8.910156 24.609375 C 9.121094 15.765625 16.320312 8.8125 25.164062 8.898438 C 33.976562 8.988281 41.09375 16.164062 41.09375 25 C 41.09375 25.828125 41.027344 26.65625 40.902344 27.472656 C 38.933594 40.460938 22.027344 47.757812 21.9375 47.796875 C 22.9375 47.929688 23.960938 48 25 48 C 37.695312 48 47.988281 37.703125 47.988281 25 C 47.988281 12.296875 37.695312 2 25 2 "/>
</g>
</svg>
